<svg width="259" height="64" viewBox="0 0 259 64" fill="none" xmlns="http://www.w3.org/2000/svg">
<path d="M258.933 13.2168V23.9925H254.355C249.425 23.9925 246.96 26.6923 246.96 32.0918V49.5583H234.775V13.2168H245.974L246.96 18.5694C248.04 16.7852 249.378 15.4471 250.974 14.555C252.571 13.6628 254.636 13.2168 257.172 13.2168H258.933Z" fill="black"/>
<path d="M191.547 31.5291C191.547 27.7259 192.322 24.4158 193.871 21.5986C195.467 18.7814 197.674 16.6216 200.491 15.1191C203.356 13.5696 206.666 12.7949 210.422 12.7949C214.272 12.7949 217.653 13.5227 220.564 14.9782C223.522 16.4338 225.822 18.4997 227.466 21.176C229.109 23.8054 229.931 26.8573 229.931 30.3318C229.931 31.8343 229.813 33.149 229.579 34.2758H204.224V34.4167C204.835 38.9242 207.182 41.1779 211.267 41.1779C214.742 41.1779 216.831 39.8398 217.535 37.1634H229.508C229.18 39.5111 228.264 41.6709 226.762 43.6429C225.306 45.568 223.31 47.1175 220.775 48.2913C218.287 49.4181 215.399 49.9816 212.112 49.9816C207.84 49.9816 204.154 49.2303 201.055 47.7278C197.956 46.2254 195.585 44.089 193.941 41.3188C192.345 38.5486 191.547 35.2853 191.547 31.5291ZM217.887 26.8103C217.559 25.0731 216.784 23.7584 215.563 22.8663C214.389 21.9273 212.887 21.4577 211.056 21.4577C209.178 21.4577 207.652 21.9273 206.478 22.8663C205.351 23.7584 204.647 25.0731 204.365 26.8103H217.887Z" fill="black"/>
<path d="M163.396 13.2168L171.003 37.374L178.539 13.2168H191.568L175.792 54.2066C174.947 56.4604 174.102 58.2446 173.257 59.5593C172.458 60.8739 171.425 61.8834 170.158 62.5877C168.937 63.292 167.364 63.6442 165.439 63.6442H154.311V53.5728H160.016C161.143 53.5728 161.988 53.4084 162.551 53.0798C163.115 52.7511 163.561 52.0938 163.889 51.1077L164.382 49.7696L150.438 13.2168H163.396Z" fill="black"/>
<path d="M151.796 39.558V49.559H145.668C143.274 49.559 141.537 49.066 140.457 48.08C139.377 47.047 138.837 45.6619 138.837 43.9247V43.6429C137.475 45.7558 135.855 47.3522 133.977 48.4321C132.099 49.4651 129.845 49.9816 127.216 49.9816C123.131 49.9816 119.821 49.066 117.285 47.2348C114.797 45.3567 113.553 42.7039 113.553 39.2763C113.553 35.2853 115.079 32.2099 118.131 30.0501C121.183 27.8903 125.596 26.8103 131.371 26.8103H136.724V25.4018C136.724 24.134 136.207 23.1245 135.175 22.3733C134.189 21.5751 132.874 21.176 131.23 21.176C129.728 21.176 128.484 21.5047 127.498 22.162C126.559 22.7724 126.042 23.6176 125.948 24.6975H114.257C114.586 20.8943 116.299 17.9597 119.398 15.8938C122.497 13.8279 126.629 12.7949 131.794 12.7949C137.193 12.7949 141.372 13.9218 144.33 16.1755C147.288 18.4293 148.767 21.7394 148.767 26.1061V37.3747C148.767 38.2199 148.932 38.8068 149.26 39.1355C149.636 39.4172 150.223 39.558 151.021 39.558H151.796ZM136.724 34.3463H131.583C129.798 34.3463 128.39 34.7219 127.357 35.4731C126.324 36.1774 125.807 37.14 125.807 38.3607C125.807 39.3468 126.16 40.145 126.864 40.7553C127.615 41.3188 128.601 41.6005 129.822 41.6005C131.888 41.6005 133.531 40.9666 134.752 39.6989C136.02 38.3842 136.677 36.647 136.724 34.4871V34.3463Z" fill="black"/>
<path d="M79.4883 49.5583V0.257812H92.4473V38.5713H110.477V49.5583H79.4883Z" fill="black"/>
<mask id="mask0_11375_9143" style="mask-type:alpha" maskUnits="userSpaceOnUse" x="51" y="33" width="7" height="17">
<rect width="5.55657" height="16.3579" transform="matrix(-1 0 0 1 57.5547 33.0098)" fill="black"/>
</mask>
<g mask="url(#mask0_11375_9143)">
<path d="M56.459 33.0098H42.282C41.6797 33.0098 41.1914 33.498 41.1914 34.1003V48.277C41.1914 48.8793 41.6797 49.3676 42.282 49.3676H56.459C57.0613 49.3676 57.5496 48.8793 57.5496 48.277V34.1003C57.5496 33.498 57.0613 33.0098 56.459 33.0098Z" fill="black" fill-opacity="0.5"/>
</g>
<mask id="mask1_11375_9143" style="mask-type:alpha" maskUnits="userSpaceOnUse" x="51" y="0" width="7" height="17">
<rect width="5.55657" height="16.3579" transform="matrix(-1 0 0 1 57.5547 0.257812)" fill="url(#paint0_linear_11375_9143)"/>
</mask>
<g mask="url(#mask1_11375_9143)">
<path d="M56.459 0.257812H42.282C41.6797 0.257812 41.1914 0.746055 41.1914 1.34833V15.5251C41.1914 16.1274 41.6797 16.6156 42.282 16.6156H56.459C57.0613 16.6156 57.5496 16.1274 57.5496 15.5251V1.34833C57.5496 0.746055 57.0613 0.257812 56.459 0.257812Z" fill="black" fill-opacity="0.5"/>
</g>
<mask id="mask2_11375_9143" style="mask-type:alpha" maskUnits="userSpaceOnUse" x="60" y="0" width="4" height="17">
<rect width="2.76419" height="16.3579" transform="matrix(-1 0 0 1 63.1211 0.257812)" fill="black"/>
</mask>
<g mask="url(#mask2_11375_9143)">
<path d="M62.0274 0.257812H47.8503C47.248 0.257812 46.7598 0.746055 46.7598 1.34833V15.5251C46.7598 16.1274 47.248 16.6156 47.8503 16.6156H62.0274C62.6297 16.6156 63.1179 16.1274 63.1179 15.5251V1.34833C63.1179 0.746055 62.6297 0.257812 62.0274 0.257812Z" fill="black" fill-opacity="0.3"/>
</g>
<mask id="mask3_11375_9143" style="mask-type:alpha" maskUnits="userSpaceOnUse" x="60" y="33" width="4" height="17">
<rect width="2.76419" height="16.3579" transform="matrix(-1 0 0 1 63.1309 33.0098)" fill="black"/>
</mask>
<g mask="url(#mask3_11375_9143)">
<path d="M62.0372 33.0098H47.8601C47.2578 33.0098 46.7695 33.498 46.7695 34.1003V48.277C46.7695 48.8793 47.2578 49.3676 47.8601 49.3676H62.0372C62.6395 49.3676 63.1277 48.8793 63.1277 48.277V34.1003C63.1277 33.498 62.6395 33.0098 62.0372 33.0098Z" fill="black" fill-opacity="0.3"/>
</g>
<path d="M31.7148 16.6543H17.6049C17.0055 16.6543 16.5195 17.1368 16.5195 17.7319V31.7407C16.5195 32.3358 17.0055 32.8183 17.6049 32.8183H31.7148C32.3143 32.8183 32.8002 32.3358 32.8002 31.7407V17.7319C32.8002 17.1368 32.3143 16.6543 31.7148 16.6543Z" fill="black"/>
<path d="M15.3829 0.257812H1.20578C0.603488 0.257812 0.115234 0.746055 0.115234 1.34833V15.5251C0.115234 16.1274 0.603488 16.6156 1.20578 16.6156H15.3829C15.9851 16.6156 16.4734 16.1274 16.4734 15.5251V1.34833C16.4734 0.746055 15.9851 0.257812 15.3829 0.257812Z" fill="black"/>
<path d="M48.0919 0.257812H33.9148C33.3125 0.257812 32.8242 0.746055 32.8242 1.34833V15.5251C32.8242 16.1274 33.3125 16.6156 33.9148 16.6156H48.0919C48.6941 16.6156 49.1824 16.1274 49.1824 15.5251V1.34833C49.1824 0.746055 48.6941 0.257812 48.0919 0.257812Z" fill="black"/>
<path d="M15.3829 32.9727H1.20578C0.603488 32.9727 0.115234 33.4609 0.115234 34.0632V48.2399C0.115234 48.8422 0.603488 49.3305 1.20578 49.3305H15.3829C15.9852 49.3305 16.4734 48.8422 16.4734 48.2399V34.0632C16.4734 33.4609 15.9852 32.9727 15.3829 32.9727Z" fill="black"/>
<path d="M48.0918 32.9727H33.9148C33.3125 32.9727 32.8242 33.4609 32.8242 34.0632V48.2399C32.8242 48.8422 33.3125 49.3305 33.9148 49.3305H48.0918C48.6941 49.3305 49.1824 48.8422 49.1824 48.2399V34.0632C49.1824 33.4609 48.6941 32.9727 48.0918 32.9727Z" fill="black"/>
<defs>
<linearGradient id="paint0_linear_11375_9143" x1="6.03147" y1="9.12336" x2="0.0560855" y2="7.91347" gradientUnits="userSpaceOnUse">
<stop/>
<stop offset="1" stop-color="white"/>
</linearGradient>
</defs>
</svg>
